<svg width="144" height="126" viewBox="0 0 144 126" fill="none" xmlns="http://www.w3.org/2000/svg">
<circle cx="63" cy="63" r="63" fill="#7845FC" fill-opacity="0.04"/>
<path fill-rule="evenodd" clip-rule="evenodd" d="M95.4997 12.0827C95.8167 11.8714 96.245 11.9571 96.4564 12.2741L99.2158 16.4132C99.4271 16.7302 99.3415 17.1585 99.0244 17.3698C98.7074 17.5812 98.2791 17.4955 98.0678 17.1785L95.3084 13.0394C95.097 12.7224 95.1827 12.2941 95.4997 12.0827Z" fill="#A7B4CF"/>
<path fill-rule="evenodd" clip-rule="evenodd" d="M106.694 11.2779C107.072 11.3241 107.341 11.6682 107.295 12.0464L106.769 16.3432C106.723 16.7214 106.379 16.9905 106.001 16.9442C105.623 16.898 105.354 16.5539 105.4 16.1758L105.925 11.8789C105.972 11.5007 106.316 11.2316 106.694 11.2779Z" fill="#A7B4CF"/>
<path fill-rule="evenodd" clip-rule="evenodd" d="M115.858 19.4331C115.969 19.7973 115.765 20.1831 115.4 20.2947L111.261 21.5628C110.897 21.6744 110.511 21.4696 110.4 21.1053C110.288 20.7411 110.493 20.3553 110.857 20.2437L114.996 18.9756C115.36 18.8639 115.746 19.0688 115.858 19.4331Z" fill="#A7B4CF"/>
<path d="M47.9779 76.1235C48.2538 64.8099 48.7827 51.6337 49.0126 46.4598C41.8382 45.9079 40.0445 50.5989 40.0445 53.0134V95.0945C40.0445 103.718 39.3547 103.373 37.975 106.132C50.7373 105.097 47.6329 90.2655 47.9779 76.1235Z" fill="#D4D9DF"/>
<path d="M45.9083 105.787C36.5952 105.787 25.5576 106.753 25.5576 95.4395L25.5576 27.8339C25.3276 26.2242 25.9715 23.0049 30.3866 23.0049H54.8764C57.2909 23.0049 60.6251 25.1894 59.7053 30.2483H72.1227C72.8087 30.2483 72.4797 31.2794 72.1227 32.3527V34.7324H104.201L106.61 32.3229C107.238 31.2604 107.857 30.2483 108.685 30.2483H114.549C116.618 29.9034 121.792 32.6628 121.792 36.802V42.3208V105.787H45.9083Z" fill="#F8F6FB"/>
<path fill-rule="evenodd" clip-rule="evenodd" d="M26.658 25.1065C26.0644 25.9795 25.9679 27.0476 26.0698 27.7605L26.075 27.7969L26.075 95.4393C26.075 98.1819 26.7425 100.121 27.8344 101.509C28.9288 102.9 30.4931 103.794 32.3887 104.36C35.6621 105.339 39.7755 105.309 43.8423 105.28C44.5337 105.275 45.2239 105.27 45.9083 105.27H121.275V36.8018C121.275 34.9587 120.119 33.3696 118.636 32.2574C117.901 31.7059 117.106 31.2892 116.381 31.0323C115.642 30.7707 115.027 30.6929 114.634 30.7585L114.592 30.7655H108.899L107.023 32.6422C107.015 32.6557 107.007 32.6693 106.999 32.6829C106.675 33.2306 106.319 33.8342 105.918 34.3038C105.496 34.798 104.935 35.2496 104.201 35.2496H72.1227C71.9581 35.2496 71.786 35.2187 71.6271 35.132C71.4634 35.0427 71.3447 34.9111 71.2675 34.7615C71.1261 34.4875 71.1312 34.1695 71.1605 33.9191C71.2174 33.4324 71.4215 32.82 71.6006 32.2828C71.6022 32.2781 71.6037 32.2734 71.6053 32.2687V30.7655H59.0854L59.1963 30.1556C59.6324 27.7569 59.0532 26.1111 58.1501 25.068C57.2328 24.0086 55.941 23.5221 54.8764 23.5221H30.3866C28.3202 23.5221 27.23 24.2653 26.658 25.1065ZM72.6401 34.2148V32.4363C72.8053 31.9388 72.9826 31.3887 73.0284 30.9518C73.0518 30.7289 73.0538 30.4376 72.9196 30.184C72.8461 30.0451 72.7341 29.9226 72.5806 29.8396C72.4316 29.7589 72.2722 29.7308 72.1227 29.7308H60.3075C60.597 27.3763 59.9813 25.6021 58.9324 24.3907C57.8088 23.0931 56.2262 22.4873 54.8764 22.4873H30.3866C28.0378 22.4873 26.5986 23.3537 25.8023 24.5246C25.0385 25.6479 24.9205 26.9727 25.0402 27.8692L25.0402 95.4393C25.0402 98.3536 25.7524 100.536 27.0211 102.149C28.2873 103.759 30.0644 104.745 32.0924 105.352C35.5288 106.379 39.8277 106.346 43.8804 106.315C44.5652 106.31 45.2429 106.305 45.9083 106.305H122.31V36.8018C122.31 34.5057 120.878 32.6456 119.257 31.4295C118.44 30.8168 117.553 30.3497 116.726 30.0569C115.932 29.7754 115.142 29.6374 114.509 29.7308H108.685C108.044 29.7308 107.552 30.124 107.183 30.5468C106.823 30.9597 106.498 31.4968 106.198 32.0031L103.987 34.2148H72.6401Z" fill="#A7B4CF"/>
<path d="M53.1517 42.3213H61.43H115.928H136.279C141.798 42.3213 143.178 46.6904 143.178 48.8749C143.408 60.4874 143.729 85.92 143.178 94.7502C142.626 103.58 135.819 105.788 132.485 105.788H37.63C46.7361 105.788 48.3227 97.0497 47.9778 92.6806V48.8749C47.9778 44.1839 51.4271 42.5512 53.1517 42.3213Z" fill="white"/>
<path fill-rule="evenodd" clip-rule="evenodd" d="M53.1174 41.8037H136.279C139.196 41.8037 141.075 42.9685 142.21 44.4662C143.325 45.9371 143.694 47.6891 143.695 48.8697C143.925 60.4754 144.247 85.9271 143.694 94.7823C143.409 99.3437 141.498 102.244 139.187 103.993C136.896 105.727 134.247 106.305 132.485 106.305H37.63V105.27C41.9765 105.27 44.4843 103.205 45.894 100.624C47.3238 98.0071 47.6292 94.8386 47.462 92.7211L47.4604 92.7008V48.8747C47.4604 46.3876 48.3808 44.6709 49.5618 43.5498C50.7276 42.4431 52.1257 41.9359 53.0833 41.8082L53.1174 41.8037ZM42.5443 105.27H132.485C134.057 105.27 136.478 104.745 138.562 103.168C140.626 101.605 142.394 98.9864 142.661 94.7177C143.211 85.9139 142.89 60.5067 142.66 48.885L142.66 48.8798V48.8747C142.66 47.8708 142.339 46.3489 141.386 45.0912C140.451 43.8583 138.881 42.8385 136.279 42.8385H53.1873C52.4195 42.9483 51.2503 43.3737 50.2742 44.3002C49.2994 45.2257 48.4952 46.6709 48.4952 48.8747V92.6602C48.6694 94.9119 48.3511 98.285 46.8021 101.12C45.8709 102.825 44.4969 104.327 42.5443 105.27Z" fill="#A7B4CF"/>
<path d="M75.9169 80.9521C56.325 70.7422 57.4058 53.3579 60.7401 45.7695C60.7401 51.9782 59.0155 64.7405 75.9169 74.3985C87.8961 81.2437 101.441 77.1579 108.34 69.9144L113.514 75.0883L133.865 93.3694C134.784 94.5192 136.417 97.4396 135.589 99.923C131.105 107.167 126.621 104.062 125.586 103.717C124.552 103.372 116.273 94.7491 111.789 90.2651C107.305 85.781 110.065 83.0216 110.065 82.3318C110.065 81.6419 109.72 80.9521 104.546 77.1579C95.5777 83.7115 83.8502 84.7463 75.9169 80.9521Z" fill="#DCE0EB"/>
<path d="M117.653 49.5645C117.653 65.3758 104.835 78.1934 89.0241 78.1934C73.2128 78.1934 60.3952 65.3758 60.3952 49.5645C60.3952 33.7532 73.2128 20.9355 89.0241 20.9355C104.835 20.9355 117.653 33.7532 117.653 49.5645Z" fill="white"/>
<path fill-rule="evenodd" clip-rule="evenodd" d="M89.0241 77.1586C104.264 77.1586 116.618 64.8043 116.618 49.5645C116.618 34.3246 104.264 21.9703 89.0241 21.9703C73.7843 21.9703 61.43 34.3246 61.43 49.5645C61.43 64.8043 73.7843 77.1586 89.0241 77.1586ZM89.0241 78.1934C104.835 78.1934 117.653 65.3758 117.653 49.5645C117.653 33.7532 104.835 20.9355 89.0241 20.9355C73.2128 20.9355 60.3952 33.7532 60.3952 49.5645C60.3952 65.3758 73.2128 78.1934 89.0241 78.1934Z" fill="#A7B4CF"/>
<path d="M110.065 50.2544C110.065 61.8748 100.645 71.2949 89.0242 71.2949C77.4038 71.2949 67.9836 61.8748 67.9836 50.2544C67.9836 38.634 77.4038 29.2139 89.0242 29.2139C100.645 29.2139 110.065 38.634 110.065 50.2544Z" fill="#F8F6FB"/>
<path fill-rule="evenodd" clip-rule="evenodd" d="M89.0242 70.2602C100.073 70.2602 109.03 61.3033 109.03 50.2544C109.03 39.2055 100.073 30.2486 89.0242 30.2486C77.9753 30.2486 69.0184 39.2055 69.0184 50.2544C69.0184 61.3033 77.9753 70.2602 89.0242 70.2602ZM89.0242 71.2949C100.645 71.2949 110.065 61.8748 110.065 50.2544C110.065 38.634 100.645 29.2139 89.0242 29.2139C77.4038 29.2139 67.9836 38.634 67.9836 50.2544C67.9836 61.8748 77.4038 71.2949 89.0242 71.2949Z" fill="#A7B4CF"/>
<path d="M93.8531 39.2165C82.8154 34.2495 73.1172 42.0909 69.323 46.4599C70.0129 40.9411 74.152 36.1121 76.5665 34.7324H101.746C104.161 36.802 107.61 39.9063 108.99 46.4599C110.151 51.9788 107.955 57.1527 106.92 58.8773C106.92 54.3932 104.891 44.1834 93.8531 39.2165Z" fill="#DCE0EB"/>
<path d="M113.427 74.5945C116.426 71.6288 121.262 71.6563 124.228 74.656L136.476 87.0446C139.442 90.0443 139.414 94.8802 136.415 97.8459C133.415 100.812 128.579 100.784 125.613 97.7844L113.365 85.3958C110.399 82.3961 110.427 77.5602 113.427 74.5945Z" fill="white"/>
<path fill-rule="evenodd" clip-rule="evenodd" d="M135.74 87.7722L123.492 75.3835C120.928 72.7903 116.747 72.7664 114.154 75.3304C111.561 77.8943 111.537 82.075 114.101 84.6683L126.349 97.0569C128.913 99.6502 133.094 99.674 135.687 97.1101C138.28 94.5462 138.304 90.3654 135.74 87.7722ZM124.228 74.656C121.262 71.6563 116.426 71.6288 113.427 74.5945C110.427 77.5602 110.399 82.3961 113.365 85.3958L125.613 97.7844C128.579 100.784 133.415 100.812 136.415 97.8459C139.414 94.8802 139.442 90.0443 136.476 87.0446L124.228 74.656Z" fill="#A7B4CF"/>
<path d="M106.615 71.8564L110.596 67.845L116.195 73.4007L113.969 75.0733L112.214 77.4122L106.615 71.8564Z" fill="#E4E4EC"/>
<path fill-rule="evenodd" clip-rule="evenodd" d="M113.969 75.0733L116.195 73.4007L110.596 67.845L106.615 71.8564L112.214 77.4122L113.969 75.0733ZM112.099 75.8406L113.229 74.3345L114.616 73.2923L110.602 69.3083L108.079 71.8508L112.099 75.8406Z" fill="#A7B4CF"/>
<path d="M83.1604 47.8391C83.1604 48.9821 82.2338 49.9087 81.0908 49.9087C79.9478 49.9087 79.0212 48.9821 79.0212 47.8391C79.0212 46.6961 79.9478 45.7695 81.0908 45.7695C82.2338 45.7695 83.1604 46.6961 83.1604 47.8391Z" fill="#A7B4CF"/>
<path fill-rule="evenodd" clip-rule="evenodd" d="M124.876 96.1081L134.534 86.4502L135.265 87.1819L125.607 96.8398L124.876 96.1081Z" fill="#A7B4CF"/>
<path fill-rule="evenodd" clip-rule="evenodd" d="M118.101 76.0714C116.738 76.1396 115.705 76.9606 115.174 77.7038L114.613 77.3028C115.232 76.4363 116.441 75.4637 118.067 75.3824C119.707 75.3004 121.67 76.1286 123.782 78.6622L123.252 79.1038C121.224 76.6705 119.451 76.0039 118.101 76.0714Z" fill="#A7B4CF"/>
<path d="M99.027 47.8391C99.027 48.9821 98.1004 49.9087 96.9574 49.9087C95.8145 49.9087 94.8879 48.9821 94.8879 47.8391C94.8879 46.6961 95.8145 45.7695 96.9574 45.7695C98.1004 45.7695 99.027 46.6961 99.027 47.8391Z" fill="#A7B4CF"/>
<path fill-rule="evenodd" clip-rule="evenodd" d="M96.0158 57.9911C94.8625 55.2664 92.165 53.358 89.0241 53.358C85.8833 53.358 83.1857 55.2664 82.0324 57.9911C81.8338 58.4604 81.9329 58.8832 82.248 59.2403C82.587 59.6246 83.1761 59.9116 83.8502 59.9116H94.198C94.8721 59.9116 95.4612 59.6246 95.8003 59.2403C96.1153 58.8832 96.2145 58.4604 96.0158 57.9911ZM83.8502 60.9464C81.9452 60.9464 80.3369 59.342 81.0795 57.5877C82.3891 54.4939 85.4531 52.3232 89.0241 52.3232C92.5951 52.3232 95.6591 54.4939 96.9687 57.5877C97.7113 59.342 96.103 60.9464 94.198 60.9464H83.8502Z" fill="#A7B4CF"/>
<path fill-rule="evenodd" clip-rule="evenodd" d="M92.5616 58.8957C91.8847 57.845 90.7074 57.1529 89.3691 57.1529C88.0308 57.1529 86.8535 57.845 86.1766 58.8957C86.0868 59.035 86.0802 59.1285 86.0857 59.1856C86.092 59.252 86.1235 59.347 86.2169 59.459C86.4156 59.6973 86.8194 59.9124 87.2995 59.9124H91.4386C91.9188 59.9124 92.3226 59.6973 92.5213 59.459C92.6147 59.347 92.6462 59.252 92.6525 59.1856C92.6579 59.1285 92.6513 59.035 92.5616 58.8957ZM87.2995 60.9471C85.7755 60.9471 84.4813 59.6164 85.3067 58.3353C86.1661 57.0014 87.6644 56.1182 89.3691 56.1182C91.0737 56.1182 92.5721 57.0014 93.4314 58.3353C94.2568 59.6164 92.9626 60.9471 91.4386 60.9471H87.2995Z" fill="#A7B4CF"/>
<path fill-rule="evenodd" clip-rule="evenodd" d="M30.7315 28.6961C30.7315 28.4104 30.9631 28.1787 31.2489 28.1787H51.5996C51.8853 28.1787 52.117 28.4104 52.117 28.6961C52.117 28.9818 51.8853 29.2135 51.5996 29.2135H31.2489C30.9631 29.2135 30.7315 28.9818 30.7315 28.6961Z" fill="#A7B4CF"/>
<path fill-rule="evenodd" clip-rule="evenodd" d="M75.572 34.3182C75.572 34.0896 75.7573 33.9043 75.9859 33.9043H101.372C101.601 33.9043 101.786 34.0896 101.786 34.3182C101.786 34.5468 101.601 34.7321 101.372 34.7321H75.9859C75.7573 34.7321 75.572 34.5468 75.572 34.3182Z" fill="#A7B4CF"/>
</svg>
